#!OML:ASF E:\Steps\Project 1\Capture day 1\Session 2\Subject.ASF
:FULLY-SPECIFIED
:DEGREES
366
root 8.97049 16.2264 23.4216 -156.322 -0.375476 178.442
lowerback -26.2693 -1.8474 -4.41624
upperback -3.2441 -1.97068 -0.107919
thorax 11.1169 -1.45339 1.66139
lowerneck 1.23092 -2.15768 1.2857
upperneck -2.12091 -2.8773 -1.60379
head -0.896205 -1.4259 -0.670307
rclavicle -3.27995e-015 -1.59028e-015
rhumerus -37.7947 -10.3249 -83.1666
rradius 32.7362
rwrist -2.84881
rhand -7.56641 -53.65
rfingers 7.12502
rthumb 18.326 -82.8067
lclavicle -3.27995e-015 -1.59028e-015
lhumerus -33.8579 -3.30725 84.7334
lradius 21.9546
lwrist -4.60136
lhand -19.3922 -15.0224
lfingers 7.12502
lthumb 6.92655 14.8442
rfemur -29.8607 8.41209 15.8211
rtibia 24.13
rfoot -26.3858 -8.90385
rtoes -29.2566
lfemur -30.6907 -9.3181 -20.4932
ltibia 26.4696
lfoot -14.5228 2.74192
ltoes -33.3245
367
root 8.96778 16.2239 23.4184 -156.293 -0.277831 178.501
lowerback -26.2113 -1.78831 -4.41705
upperback -3.19025 -1.88255 -0.111454
thorax 11.1425 -1.40869 1.69029
lowerneck 1.55936 -2.53159 0.990001
upperneck -2.28886 -3.37893 -1.4893
head -1.00344 -1.67335 -0.574645
rclavicle -5.64051e-015 4.96962e-015
rhumerus -37.6852 -10.1956 -83.2171
rradius 32.735
rwrist -3.0549
rhand -7.36286 -53.1886
rfingers 7.12502
rthumb 18.5218 -82.3268
lclavicle -5.64051e-015 4.96962e-015
lhumerus -33.4002 -2.99249 84.5836
lradius 21.901
lwrist -4.5578
lhand -19.4639 -14.5778
lfingers 7.12502
lthumb 6.85731 15.2912
rfemur -29.7682 8.83803 15.7682
rtibia 23.8971
rfoot -26.3995 -9.06131
rtoes -29.1578
lfemur -30.393 -9.49949 -20.4512
ltibia 25.9464
lfoot -14.5784 3.10864
ltoes -32.9367
368
root 8.9644 16.2199 23.4144 -156.224 -0.163347 178.637
lowerback -26.2151 -1.71196 -4.31357
upperback -3.1205 -1.79801 -0.107836
thorax 11.2169 -1.36168 1.66416
lowerneck 1.49219 -2.33528 1.44951
upperneck -2.94226 -3.11358 -1.81141
head -1.20894 -1.53594 -0.753299
rclavicle -1.84373e-014 4.77083e-015
rhumerus -37.324 -10.2808 -83.2443
rradius 32.4245
rwrist -3.02465
rhand -7.32206 -52.9543
rfingers 7.12502
rthumb 18.561 -82.0888
lclavicle -1.84373e-014 4.77083e-015
lhumerus -32.8563 -2.4942 84.3701
lradius 21.7925
lwrist -4.71649
lhand -19.8621 -14.3543
lfingers 7.12502
lthumb 6.47292 15.5268
rfemur -29.783 9.11215 15.8424
rtibia 23.7421
rfoot -26.2994 -9.19997
rtoes -29.5999
lfemur -30.1887 -9.59521 -20.3253
ltibia 25.5246
lfoot -14.7281 3.43758
ltoes -33.3857
369
root 8.96208 16.2141 23.4106 -156.2 0.0177278 178.708
lowerback -26.1606 -1.67028 -4.28721
upperback -3.03635 -1.73581 -0.10279
thorax 11.2807 -1.32699 1.67746
lowerneck -3.19716 -2.98002 -0.54449
upperneck -3.40707 -3.77404 2.9742
head -0.443632 -1.83239 0.974217
rclavicle 1.15295e-014 -4.37326e-015
rhumerus -36.8029 -10.595 -83.1981
rradius 31.9408
rwrist -2.64377
rhand -7.52316 -52.7877
rfingers 7.12502
rthumb 18.3676 -81.9405
lclavicle 1.15295e-014 -4.37326e-015
lhumerus -32.3557 -1.88911 84.1511
lradius 21.7049
lwrist -4.92964
lhand -20.2596 -14.3925
lfingers 7.12502
lthumb 6.08916 15.5
rfemur -29.8314 9.32179 15.8705
rtibia 23.7347
rfoot -26.2373 -9.22452
rtoes -29.4248
lfemur -30.001 -9.70318 -20.282
ltibia 25.188
lfoot -14.8567 3.76099
ltoes -33.7
370
root 8.96099 16.21 23.4108 -156.222 0.17418 178.752
lowerback -25.9749 -1.63237 -4.30814
upperback -2.97967 -1.67208 -0.101576
thorax 11.2444 -1.29206 1.71778
lowerneck -3.08336 -3.14975 -0.584196
upperneck -3.70485 -3.98534 2.9611
head -0.549222 -1.93724 0.98105
rclavicle -5.41688e-015 -3.18055e-015
rhumerus -36.3622 -11.0251 -83.103
rradius 31.5274
rwrist -2.12562
rhand -7.78788 -52.8447
rfingers 7.12502
rthumb 18.1129 -82.0213
lclavicle -5.41688e-015 -3.18055e-015
lhumerus -31.9692 -1.40154 83.9686
lradius 21.6631
lwrist -5.18081
lhand -20.3294 -14.1833
lfingers 7.12502
lthumb 6.02177 15.7111
rfemur -29.834 9.43048 15.8933
rtibia 23.7132
rfoot -26.1488 -9.15229
rtoes -29.0799
lfemur -29.8337 -9.87724 -20.2407
ltibia 24.8994
lfoot -14.8541 4.12526
ltoes -33.9907
371
root 8.96069 16.2089 23.4141 -156.211 0.261618 178.837
lowerback -25.7897 -2.47557 -3.87453
upperback -2.98086 -1.38054 -0.0632214
thorax 11.1589 -0.491465 1.74247
lowerneck -2.88888 -3.33828 -0.477978
upperneck -4.19275 -4.20778 3.0787
head -0.727004 -2.04812 1.00915
rclavicle -2.75814e-015 5.56597e-015
rhumerus -36.0509 -11.6411 -82.9207
rradius 31.0403
rwrist -1.5142
rhand -7.90471 -52.8634
rfingers 7.12502
rthumb 18.0005 -82.0504
lclavicle -2.75814e-015 5.56597e-015
lhumerus -31.5829 -0.994115 83.7736
lradius 21.5234
lwrist -5.5946
lhand -20.3083 -14.0694
lfingers 7.12502
lthumb 6.04217 15.8244
rfemur -29.8755 9.56868 15.9272
rtibia 23.6605
rfoot -26.1049 -9.03813
rtoes -28.6434
lfemur -29.7612 -9.98769 -20.1371
ltibia 24.6761
lfoot -14.7412 4.44714
ltoes -34.8413
372
root 8.9598 16.2092 23.414 -156.224 0.372407 178.92
lowerback -25.6544 -2.4357 -3.88227
upperback -2.94655 -1.3478 -0.0415961
thorax 11.1249 -0.482858 1.78314
lowerneck -2.77775 -3.4145 -0.43864
upperneck -4.48617 -4.29231 3.10489
head -0.834781 -2.08995 1.01713
rclavicle 1.25483e-014 1.61016e-014
rhumerus -35.7451 -12.2232 -82.682
rradius 30.5206
rwrist -0.95923
rhand -7.78058 -52.6191
rfingers 7.12502
rthumb 18.12 -81.7951
lclavicle 1.25483e-014 1.61016e-014
lhumerus -31.1234 -0.367242 83.5456
lradius 21.2931
lwrist -6.23238
lhand -20.7834 -14.8136
lfingers 7.12502
lthumb 5.58346 15.0929
rfemur -29.8649 9.7424 15.9582
rtibia 23.602
rfoot -26.0546 -8.89467
rtoes -28.0181
lfemur -29.6871 -9.97293 -20.062
ltibia 24.5354
lfoot -14.6207 4.56456
ltoes -34.5611
373
root 8.95876 16.2094 23.4151 -156.224 0.389702 178.968
lowerback -25.5401 -2.42538 -3.89332
upperback -2.88487 -1.35235 -0.0324982
thorax 11.1353 -0.493495 1.79789
lowerneck -2.85992 -3.35693 -0.480674
upperneck -4.39337 -4.22293 3.01502
head -0.794673 -2.05408 0.99338
rclavicle 1.31695e-015 4.17448e-015
rhumerus -35.4293 -12.4658 -82.6132
rradius 30.2079
rwrist -0.754754
rhand -7.6971 -52.8081
rfingers 7.12502
rthumb 18.2003 -81.9766
lclavicle 1.31695e-015 4.17448e-015
lhumerus -30.6976 0.284568 83.3186
lradius 21.1547
lwrist -6.80717
lhand -20.9975 -14.1264
lfingers 7.12502
lthumb 5.37673 15.7854
rfemur -29.8297 9.72671 16.0363
rtibia 23.5663
rfoot -26.0179 -8.88878
rtoes -28.0949
lfemur -29.7009 -9.96282 -19.9973
ltibia 24.4981
lfoot -14.5355 4.62862
ltoes -34.7536
374
root 8.9576 16.2104 23.4162 -156.234 0.396952 178.967
lowerback -25.4379 -2.38624 -3.95515
upperback -2.80115 -1.29783 -0.0833342
thorax 11.1735 -0.478705 1.79437
lowerneck -3.06284 -3.30786 -0.417438
upperneck -4.16679 -4.1717 2.91381
head -0.695473 -2.02751 0.944296
rclavicle -2.5345e-015 -1.09332e-014
rhumerus -35.1071 -12.8437 -82.5953
rradius 29.9399
rwrist -0.514383
rhand -7.86462 -52.9962
rfingers 7.12502
rthumb 18.0391 -82.1797
lclavicle -2.5345e-015 -1.09332e-014
lhumerus -30.358 0.635657 83.1192
lradius 21.2227
lwrist -7.20569
lhand -21.4099 -13.7735
lfingers 7.12502
lthumb 4.97859 16.148
rfemur -29.738 9.70711 16.0542
rtibia 23.4467
rfoot -26.0143 -8.87205
rtoes -28.2503
lfemur -29.7139 -9.95542 -20.0049
ltibia 24.5116
lfoot -14.5284 4.68927
ltoes -35.367
